<mxfile host="app.diagrams.net" modified="2023-08-15T14:20:01.825Z" agent="Mozilla/5.0 (Windows NT 10.0; Win64; x64) AppleWebKit/537.36 (KHTML, like Gecko) Chrome/115.0.0.0 Safari/537.36" etag="o8w99sbSWAFjj7T5L7mW" version="21.6.8" type="device">
  <diagram name="‫עמוד-1‬" id="B0BvvvXLZIYUg5wkp8R4">
    <mxGraphModel dx="26180" dy="22000" grid="1" gridSize="10" guides="1" tooltips="1" connect="1" arrows="1" fold="1" page="1" pageScale="1" pageWidth="827" pageHeight="1169" math="0" shadow="0">
      <root>
        <mxCell id="0" />
        <mxCell id="1" parent="0" />
        <mxCell id="q4SmgDs_VHrsYAJA6EE1-38" style="edgeStyle=orthogonalEdgeStyle;rounded=0;orthogonalLoop=1;jettySize=auto;html=1;exitX=1;exitY=0.5;exitDx=0;exitDy=0;entryX=-0.025;entryY=0.5;entryDx=0;entryDy=0;entryPerimeter=0;" edge="1" parent="1" source="q4SmgDs_VHrsYAJA6EE1-1" target="q4SmgDs_VHrsYAJA6EE1-29">
          <mxGeometry relative="1" as="geometry" />
        </mxCell>
        <mxCell id="q4SmgDs_VHrsYAJA6EE1-1" value="&lt;font style=&quot;font-size: 25px;&quot;&gt;x&lt;/font&gt;" style="ellipse;whiteSpace=wrap;html=1;fillColor=#f5f5f5;fontColor=#333333;strokeColor=#666666;" vertex="1" parent="1">
          <mxGeometry x="150" y="340" width="80" height="80" as="geometry" />
        </mxCell>
        <mxCell id="q4SmgDs_VHrsYAJA6EE1-17" style="edgeStyle=orthogonalEdgeStyle;rounded=0;orthogonalLoop=1;jettySize=auto;html=1;exitX=1;exitY=0.5;exitDx=0;exitDy=0;entryX=0;entryY=0.5;entryDx=0;entryDy=0;" edge="1" parent="1" target="q4SmgDs_VHrsYAJA6EE1-16">
          <mxGeometry relative="1" as="geometry">
            <mxPoint x="390" y="380" as="sourcePoint" />
          </mxGeometry>
        </mxCell>
        <mxCell id="q4SmgDs_VHrsYAJA6EE1-32" style="edgeStyle=orthogonalEdgeStyle;rounded=0;orthogonalLoop=1;jettySize=auto;html=1;exitX=1;exitY=0.5;exitDx=0;exitDy=0;entryX=0;entryY=0.5;entryDx=0;entryDy=0;" edge="1" parent="1" source="q4SmgDs_VHrsYAJA6EE1-16" target="q4SmgDs_VHrsYAJA6EE1-31">
          <mxGeometry relative="1" as="geometry" />
        </mxCell>
        <mxCell id="q4SmgDs_VHrsYAJA6EE1-16" value="&lt;font style=&quot;font-size: 19px;&quot;&gt;log_softmax&lt;/font&gt;" style="rounded=1;whiteSpace=wrap;html=1;fillColor=#dae8fc;strokeColor=#6c8ebf;" vertex="1" parent="1">
          <mxGeometry x="490" y="330" width="120" height="100" as="geometry" />
        </mxCell>
        <mxCell id="q4SmgDs_VHrsYAJA6EE1-21" value="&lt;font style=&quot;font-size: 20px;&quot;&gt;logits&lt;/font&gt;" style="edgeLabel;html=1;align=center;verticalAlign=middle;resizable=0;points=[];" vertex="1" connectable="0" parent="1">
          <mxGeometry x="272" y="378" as="geometry">
            <mxPoint x="168" y="-15" as="offset" />
          </mxGeometry>
        </mxCell>
        <mxCell id="q4SmgDs_VHrsYAJA6EE1-33" style="rounded=0;orthogonalLoop=1;jettySize=auto;html=1;exitX=1;exitY=0.5;exitDx=0;exitDy=0;entryX=0;entryY=0.75;entryDx=0;entryDy=0;" edge="1" parent="1" source="q4SmgDs_VHrsYAJA6EE1-28" target="q4SmgDs_VHrsYAJA6EE1-31">
          <mxGeometry relative="1" as="geometry" />
        </mxCell>
        <mxCell id="q4SmgDs_VHrsYAJA6EE1-28" value="&lt;font style=&quot;font-size: 25px;&quot;&gt;y&lt;/font&gt;" style="ellipse;whiteSpace=wrap;html=1;fillColor=#f5f5f5;fontColor=#333333;strokeColor=#666666;" vertex="1" parent="1">
          <mxGeometry x="520" y="480" width="80" height="80" as="geometry" />
        </mxCell>
        <mxCell id="q4SmgDs_VHrsYAJA6EE1-29" value="&lt;font style=&quot;font-size: 22px;&quot;&gt;Model&lt;/font&gt;" style="shape=cube;whiteSpace=wrap;html=1;boundedLbl=1;backgroundOutline=1;darkOpacity=0.05;darkOpacity2=0.1;" vertex="1" parent="1">
          <mxGeometry x="280" y="340" width="120" height="80" as="geometry" />
        </mxCell>
        <mxCell id="q4SmgDs_VHrsYAJA6EE1-30" style="edgeStyle=orthogonalEdgeStyle;rounded=0;orthogonalLoop=1;jettySize=auto;html=1;exitX=0.5;exitY=1;exitDx=0;exitDy=0;" edge="1" parent="1" source="q4SmgDs_VHrsYAJA6EE1-16" target="q4SmgDs_VHrsYAJA6EE1-16">
          <mxGeometry relative="1" as="geometry" />
        </mxCell>
        <mxCell id="q4SmgDs_VHrsYAJA6EE1-39" style="edgeStyle=orthogonalEdgeStyle;rounded=0;orthogonalLoop=1;jettySize=auto;html=1;exitX=1;exitY=0.5;exitDx=0;exitDy=0;entryX=0;entryY=0.5;entryDx=0;entryDy=0;" edge="1" parent="1" source="q4SmgDs_VHrsYAJA6EE1-31" target="q4SmgDs_VHrsYAJA6EE1-36">
          <mxGeometry relative="1" as="geometry" />
        </mxCell>
        <mxCell id="q4SmgDs_VHrsYAJA6EE1-31" value="&lt;font style=&quot;font-size: 17px;&quot;&gt;index_select&lt;/font&gt;" style="whiteSpace=wrap;html=1;aspect=fixed;" vertex="1" parent="1">
          <mxGeometry x="700" y="325" width="110" height="110" as="geometry" />
        </mxCell>
        <mxCell id="q4SmgDs_VHrsYAJA6EE1-35" value="&lt;font style=&quot;font-size: 15px;&quot;&gt;y_log_prob&lt;/font&gt;" style="text;html=1;align=center;verticalAlign=middle;resizable=0;points=[];autosize=1;strokeColor=none;fillColor=none;" vertex="1" parent="1">
          <mxGeometry x="606" y="350" width="100" height="30" as="geometry" />
        </mxCell>
        <mxCell id="q4SmgDs_VHrsYAJA6EE1-40" style="edgeStyle=orthogonalEdgeStyle;rounded=0;orthogonalLoop=1;jettySize=auto;html=1;exitX=1;exitY=0.5;exitDx=0;exitDy=0;" edge="1" parent="1" source="q4SmgDs_VHrsYAJA6EE1-36" target="q4SmgDs_VHrsYAJA6EE1-41">
          <mxGeometry relative="1" as="geometry">
            <mxPoint x="1060" y="380" as="targetPoint" />
          </mxGeometry>
        </mxCell>
        <mxCell id="q4SmgDs_VHrsYAJA6EE1-36" value="&lt;font style=&quot;font-size: 17px;&quot;&gt;SUM&lt;/font&gt;" style="whiteSpace=wrap;html=1;aspect=fixed;" vertex="1" parent="1">
          <mxGeometry x="870" y="325" width="110" height="110" as="geometry" />
        </mxCell>
        <mxCell id="q4SmgDs_VHrsYAJA6EE1-41" value="CE&lt;br&gt;LOSS" style="ellipse;whiteSpace=wrap;html=1;aspect=fixed;" vertex="1" parent="1">
          <mxGeometry x="1020" y="340" width="80" height="80" as="geometry" />
        </mxCell>
      </root>
    </mxGraphModel>
  </diagram>
</mxfile>
